<?xml version="1.0" encoding="utf-8"?>
<!-- Generator: Adobe Illustrator 28.0.0, SVG Export Plug-In . SVG Version: 6.00 Build 0)  -->
<svg version="1.1" id="Layer_1" xmlns="http://www.w3.org/2000/svg" xmlns:xlink="http://www.w3.org/1999/xlink" x="0px" y="0px"
	 viewBox="0 0 800 800" style="enable-background:new 0 0 800 800;" xml:space="preserve">
<style type="text/css">
	.st0{fill-rule:evenodd;clip-rule:evenodd;fill:#FFFFFF;}
</style>
<path class="st0" d="M666.7,33.3c55.2,0,100,44.8,100,100v533.3c0,55.2-44.8,100-100,100H133.3c-55.2,0-100-44.8-100-100V133.3
	c0-55.2,44.8-100,100-100H666.7z M666.7,100c18.4,0,33.3,14.9,33.3,33.3v533.3c0,18.4-14.9,33.3-33.3,33.3H500V466.7h69.2
	c14.3,0,27.1-9.2,31.6-22.8l14.8-44.3c5.4-16.2-6.7-32.9-23.7-32.9H500V300c0-16.7,16.7-33.3,33.3-33.3H600
	c18.4,0,33.3-14.9,33.3-33.3v-22.9c0-10.8-6.9-20.4-17.3-23.2c-43.7-11.5-82.7-11.5-82.7-11.5C450,175.8,400,233.3,400,283.3v83.3
	h-66.7c-18.4,0-33.3,14.9-33.3,33.3v33.3c0,18.4,14.9,33.3,33.3,33.3H400V700H133.3c-18.4,0-33.3-14.9-33.3-33.3V133.3
	c0-18.4,14.9-33.3,33.3-33.3H666.7z"/>
</svg>
