<?xml version="1.0" encoding="utf-8"?>
<!-- Generator: Adobe Illustrator 28.0.0, SVG Export Plug-In . SVG Version: 6.00 Build 0)  -->
<svg version="1.1" id="Layer_1" xmlns="http://www.w3.org/2000/svg" xmlns:xlink="http://www.w3.org/1999/xlink" x="0px" y="0px"
	 viewBox="0 0 800 800" style="enable-background:new 0 0 800 800;" xml:space="preserve">
<style type="text/css">
	.st0{fill:#FFFFFF;}
</style>
<path class="st0" d="M416.4,25.7c40.9-0.6,81.5-0.3,122.1-0.6c1.4,50.8,22,96.5,54.7,130.3l0-0.1c35.3,31.8,81.2,52.4,131.8,55.9
	l0.7,0v125.9C677.9,336,632.9,325,592.4,306l2,0.9c-19.6-9.4-36.2-19.1-51.9-29.9l1.3,0.9c-0.3,91.2,0.3,182.4-0.6,273.4
	c-2.6,46.3-18,88.6-42.7,123.8l0.5-0.8c-41.3,59.2-108.2,98-184.3,100.3h-0.4c-3.1,0.2-6.7,0.2-10.3,0.2c-43.2,0-83.7-12.1-118.1-33
	l1,0.6C126.3,704.6,83,640.1,75,565l-0.1-1c-0.6-15.6-0.9-31.2-0.3-46.5c12.2-119.5,112.3-211.9,234-211.9c13.7,0,27.1,1.2,40.1,3.4
	l-1.4-0.2c0.6,46.2-1.2,92.5-1.2,138.7c-10.6-3.8-22.8-6-35.5-6c-46.7,0-86.4,29.9-101.1,71.5l-0.2,0.8c-3.3,10.7-5.2,23-5.2,35.7
	c0,5.1,0.3,10.2,0.9,15.2l-0.1-0.6c8.3,51.1,52.2,89.8,105,89.8c1.5,0,3,0,4.5-0.1h-0.2c36.6-1.1,68.3-20.8,86.3-49.9l0.3-0.4
	c6.7-9.3,11.2-20.6,12.8-32.8l0-0.4c3.1-55.9,1.9-111.5,2.2-167.4c0.3-125.9-0.3-251.5,0.6-377.1L416.4,25.7z"/>
</svg>
